Coordinates
version=1
nRows=21
nColumns=22
inDegrees=yes

Units are S.I. units (second, meters, Newtons, ...)
If the header above contains a line with 'inDegrees', this indicates whether rotational values are in degrees (yes) or radians (no).

endheader
time	pelvis_tilt	pelvis_list	pelvis_rotation	pelvis_tx	pelvis_ty	pelvis_tz	hip_flexion_r	hip_adduction_r	hip_rotation_r	knee_angle_r	ankle_angle_r	subtalar_angle_r	hip_flexion_l	hip_adduction_l	hip_rotation_l	knee_angle_l	ankle_angle_l	subtalar_angle_l	lumbar_extension	lumbar_bending	lumbar_rotation
      5.71000000	    -12.03591193	     -2.49977752	     -6.10755933	      1.01061040	      0.97266997	      0.45902951	      8.70543906	      4.58020576	      1.96095670	    -27.98924354	     19.62192057	      0.26939851	     32.46079452	     -1.71279266	     -4.68847539	    -20.34716960	      7.45073444	      0.75196344	      2.07024511	      5.71353663	      6.84642995
      5.72000000	    -12.12644421	     -2.30359791	     -6.07963846	      1.01525518	      0.97297768	      0.45757007	      9.06390102	      4.27181639	      1.88933644	    -28.88166322	     19.31676871	      0.52376604	     32.20494175	     -1.40821350	     -4.80506643	    -20.19580759	      7.64898367	      0.66747874	      2.23881754	      5.48112151	      6.82387980
      5.73000000	    -12.21284762	     -2.09977951	     -6.03757085	      1.01983601	      0.97324495	      0.45610541	      9.44874039	      3.94816462	      1.75347621	    -29.81617027	     18.99507454	      0.77146610	     31.95048268	     -1.08680685	     -4.90321583	    -20.04177325	      7.85829828	      0.57887339	      2.40319343	      5.23511686	      6.77629953
      5.74000000	    -12.29505007	     -1.88710414	     -5.98800794	      1.02434567	      0.97346682	      0.45463714	      9.85967685	      3.60553490	      1.56152833	    -30.78912680	     18.64872977	      0.99423577	     31.69963348	     -0.74988914	     -4.98724702	    -19.89166606	      8.07092175	      0.48675642	      2.56157719	      4.97834025	      6.70714059
      5.75000000	    -12.38209391	     -1.66759878	     -5.93833531	      1.02875118	      0.97362788	      0.45319246	     10.31253355	      3.24672147	      1.32007344	    -31.80914007	     18.28109568	      1.21610481	     31.46617673	     -0.40581330	     -5.05958496	    -19.74982065	      8.27394152	      0.37498518	      2.72138605	      4.71037694	      6.63144287
      5.76000000	    -12.47064869	     -1.44180816	     -5.88683525	      1.03305266	      0.97373446	      0.45175364	     10.79941440	      2.86980657	      1.04258959	    -32.86627041	     17.87016482	      1.43081166	     31.24875094	     -0.05362908	     -5.12279094	    -19.62043208	      8.47402627	      0.24146386	      2.87861532	      4.43694068	      6.54698718
      5.77000000	    -12.55344870	     -1.21474711	     -5.83894270	      1.03725043	      0.97380147	      0.45035092	     11.30618811	      2.48621745	      0.75802339	    -33.95132480	     17.41800398	      1.63376883	     31.03785434	      0.29900477	     -5.17659673	    -19.50089319	      8.65906884	      0.09034634	      3.02436150	      4.16018702	      6.44413627
      5.78000000	    -12.63904080	     -0.98715119	     -5.79826466	      1.04133671	      0.97381300	      0.44897201	     11.84466329	      2.09473053	      0.47267895	    -35.06817848	     16.92628963	      1.86084254	     30.84475611	      0.64897115	     -5.22562133	    -19.39614462	      8.82881345	     -0.09949581	      3.16773610	      3.88459345	      6.34762049
      5.79000000	    -12.72785226	     -0.76654939	     -5.76719761	      1.04531814	      0.97377393	      0.44763779	     12.40884504	      1.70718353	      0.19913709	    -36.20713006	     16.39763524	      2.13570138	     30.66869012	      0.98578575	     -5.27458300	    -19.30614633	      8.98816922	     -0.33873189	      3.31173068	      3.61567181	      6.26200617
      5.80000000	    -12.80615094	     -0.55610071	     -5.74362748	      1.04920663	      0.97371958	      0.44633028	     12.97285739	      1.32908391	     -0.03904176	    -37.35118387	     15.82505333	      2.44805598	     30.49216983	      1.30990582	     -5.32122955	    -19.22676937	      9.14304706	     -0.60001448	      3.43778258	      3.36020655	      6.17474284
      5.81000000	    -12.90508166	     -0.38032097	     -5.73454504	      1.05298277	      0.97359528	      0.44506608	     13.57010113	      0.99009111	     -0.24490605	    -38.50336086	     15.25112576	      2.93790747	     30.36121435	      1.58609657	     -5.38815384	    -19.18750261	      9.34141253	     -0.97795607	      3.58283718	      3.15069764	      6.10448526
      5.82000000	    -12.95997431	     -0.19975872	     -5.73108633	      1.05670625	      0.97354701	      0.44382867	     14.12193609	      0.64295683	     -0.41042081	    -39.64429895	     14.63804584	      3.37398083	     30.17212449	      1.87043664	     -5.44377824	    -19.11845380	      9.50421134	     -1.25570179	      3.67614140	      2.93086796	      6.03586298
      5.83000000	    -13.01003237	     -0.03507791	     -5.73939713	      1.06035024	      0.97350802	      0.44262608	     14.67169845	      0.31546569	     -0.53217551	    -40.77864739	     14.02322040	      3.86758470	     29.97973010	      2.13224820	     -5.50541251	    -19.04768989	      9.67200374	     -1.52763863	      3.76281857	      2.73252396	      5.97730286
      5.84000000	    -13.04629843	      0.12063158	     -5.75816711	      1.06393479	      0.97350089	      0.44143490	     15.20948272	     -0.00500782	     -0.62028149	    -41.90508017	     13.43118767	      4.39351543	     29.76830461	      2.38196782	     -5.57111949	    -18.96346647	      9.82982327	     -1.77120794	      3.83480834	      2.54956115	      5.94509686
      5.85000000	    -13.06826660	      0.26386739	     -5.78315993	      1.06747052	      0.97353689	      0.44027056	     15.72696820	     -0.30466610	     -0.64903472	    -43.01175768	     12.87624969	      4.99453174	     29.53644311	      2.61620911	     -5.63687524	    -18.86653961	     10.00445467	     -2.00256570	      3.89392549	      2.38332653	      5.90108100
      5.86000000	    -13.06876361	      0.39980729	     -5.81260880	      1.07098498	      0.97363261	      0.43911730	     16.21207771	     -0.59058494	     -0.62090391	    -44.08834192	     12.38182357	      5.65504937	     29.26837224	      2.84399442	     -5.69871389	    -18.74359319	     10.17426694	     -2.20803781	      3.93505452	      2.22973176	      5.84660310
      5.87000000	    -13.04240199	      0.55393509	     -5.84848612	      1.07447990	      0.97379923	      0.43797896	     16.66569990	     -0.89804696	     -0.56237595	    -45.13339918	     11.94270149	      6.16804142	     28.95372855	      3.09095270	     -5.76102021	    -18.57979996	     10.28602908	     -2.33809162	      3.95572102	      2.05416264	      5.81340338
      5.88000000	    -13.01181838	      0.66479303	     -5.88006743	      1.07792996	      0.97397755	      0.43684498	     17.09126470	     -1.15921396	     -0.47602164	    -46.11761664	     11.65497991	      7.00524269	     28.64122113	      3.29442494	     -5.81748500	    -18.43304904	     10.49709854	     -2.52244168	      3.97180385	      1.93684929	      5.76526938
      5.89000000	    -12.97927044	      0.81339190	     -5.92308136	      1.08132213	      0.97418835	      0.43577417	     17.51295001	     -1.45911138	     -0.37388452	    -47.04170870	     11.42153603	      7.47923817	     28.30774063	      3.52934344	     -5.88176393	    -18.23614265	     10.60458037	     -2.60493984	      3.99581777	      1.77052161	      5.72482183
      5.90000000	    -12.97133828	      0.90840398	     -5.97122111	      1.08460439	      0.97437401	      0.43476268	     17.93254350	     -1.69806605	     -0.26381435	    -47.86124203	     11.35265816	      8.22854666	     28.01067356	      3.70182440	     -5.93119649	    -18.05983287	     10.79771421	     -2.72630123	      4.04046921	      1.67275347	      5.68380950
      5.91000000	    -12.98494738	      1.03116036	     -6.02164850	      1.08777047	      0.97454251	      0.43383118	     18.36925143	     -1.96932798	     -0.17819579	    -48.58143475	     11.36763848	      8.56019254	     27.73395341	      3.89278545	     -5.99680768	    -17.85880731	     10.90214380	     -2.77148601	      4.11176658	      1.53510424	      5.62537337
